{
  "accessors": [
    {
      "bufferView": 2,
      "componentType": 5126,
      "count": 1336,
      "max": [
        0.9492499828338623,
        0.9445800185203552,
        0.02500000037252903
      ],
      "min": [
        -0.9445800185203552,
        -0.6645600199699402,
        -0.06346999853849411
      ],
      "type": "VEC3"
    },
    {
      "bufferView": 2,
      "byteOffset": 16032,
      "componentType": 5126,
      "count": 1336,
      "max": [
        1.0,
        1.0,
        1.0
      ],
      "min": [
        -1.0,
        -0.9986199140548706,
        -1.0
      ],
      "type": "VEC3"
    },
    {
      "bufferView": 1,
      "componentType": 5126,
      "count": 1336,
      "max": [
        1.5719499588012695,
        1.3088500499725342
      ],
      "min": [
        -0.5752999782562256,
        -0.30498000979423523
      ],
      "type": "VEC2"
    },
    {
      "bufferView": 0,
      "componentType": 5125,
      "count": 7464,
      "type": "SCALAR"
    },
    {
      "bufferView": 2,
      "byteOffset": 32064,
      "componentType": 5126,
      "count": 1552,
      "max": [
        1.8420699834823608,
        1.4745800495147705,
        0.624210000038147
      ],
      "min": [
        -2.0725700855255127,
        -4.696390151977539,
        -0.44398999214172363
      ],
      "type": "VEC3"
    },
    {
      "bufferView": 2,
      "byteOffset": 50688,
      "componentType": 5126,
      "count": 1552,
      "max": [
        0.9999991059303284,
        0.9999502301216125,
        1.0
      ],
      "min": [
        -0.9999956488609314,
        -0.9999420046806335,
        -1.0
      ],
      "type": "VEC3"
    },
    {
      "bufferView": 0,
      "byteOffset": 29856,
      "componentType": 5125,
      "count": 9216,
      "type": "SCALAR"
    },
    {
      "bufferView": 2,
      "byteOffset": 69312,
      "componentType": 5126,
      "count": 482,
      "max": [
        0.9623000025749207,
        0.9623000025749207,
        0.9920700192451477
      ],
      "min": [
        -0.9623000025749207,
        -0.9623000025749207,
        -0.9920700192451477
      ],
      "type": "VEC3"
    },
    {
      "bufferView": 2,
      "byteOffset": 75096,
      "componentType": 5126,
      "count": 482,
      "max": [
        1.0,
        1.0,
        1.0
      ],
      "min": [
        -1.0,
        -1.0,
        -1.0
      ],
      "type": "VEC3"
    },
    {
      "bufferView": 0,
      "byteOffset": 66720,
      "componentType": 5125,
      "count": 2880,
      "type": "SCALAR"
    },
    {
      "bufferView": 2,
      "byteOffset": 80880,
      "componentType": 5126,
      "count": 1452,
      "max": [
        1.4607499837875366,
        0.9403200149536133,
        0.23600000143051147
      ],
      "min": [
        -0.9819300174713135,
        -2.9195799827575684,
        -0.05282000079751015
      ],
      "type": "VEC3"
    },
    {
      "bufferView": 2,
      "byteOffset": 98304,
      "componentType": 5126,
      "count": 1452,
      "max": [
        0.9999955296516418,
        0.9998940825462341,
        1.0
      ],
      "min": [
        -0.9999960064888,
        -0.9999077916145325,
        -1.0
      ],
      "type": "VEC3"
    },
    {
      "bufferView": 0,
      "byteOffset": 78240,
      "componentType": 5125,
      "count": 8640,
      "type": "SCALAR"
    },
    {
      "bufferView": 2,
      "byteOffset": 115728,
      "componentType": 5126,
      "count": 6661,
      "max": [
        0.14943000674247742,
        0.14943000674247742,
        0.39618000388145447
      ],
      "min": [
        -0.14943000674247742,
        -0.14943000674247742,
        0.0
      ],
      "type": "VEC3"
    },
    {
      "bufferView": 2,
      "byteOffset": 195660,
      "componentType": 5126,
      "count": 6661,
      "max": [
        1.0,
        1.0,
        0.8027082085609436
      ],
      "min": [
        -1.0,
        -1.0,
        -1.0
      ],
      "type": "VEC3"
    },
    {
      "bufferView": 0,
      "byteOffset": 112800,
      "componentType": 5125,
      "count": 39708,
      "type": "SCALAR"
    },
    {
      "bufferView": 2,
      "byteOffset": 275592,
      "componentType": 5126,
      "count": 1152,
      "max": [
        1.2996900081634521,
        2.053730010986328,
        0.30445998907089233
      ],
      "min": [
        -1.2996900081634521,
        -1.8644200563430786,
        -0.30445998907089233
      ],
      "type": "VEC3"
    },
    {
      "bufferView": 2,
      "byteOffset": 289416,
      "componentType": 5126,
      "count": 1152,
      "max": [
        0.9999964833259583,
        1.0,
        0.9999964833259583
      ],
      "min": [
        -0.9999964833259583,
        -1.0,
        -0.9999964833259583
      ],
      "type": "VEC3"
    },
    {
      "bufferView": 0,
      "byteOffset": 271632,
      "componentType": 5125,
      "count": 6912,
      "type": "SCALAR"
    },
    {
      "bufferView": 2,
      "byteOffset": 303240,
      "componentType": 5126,
      "count": 1552,
      "max": [
        1.8420699834823608,
        1.4745800495147705,
        0.624210000038147
      ],
      "min": [
        -2.0725700855255127,
        -4.696390151977539,
        -0.44398999214172363
      ],
      "type": "VEC3"
    },
    {
      "bufferView": 2,
      "byteOffset": 321864,
      "componentType": 5126,
      "count": 1552,
      "max": [
        0.9999991059303284,
        0.9999502301216125,
        1.0
      ],
      "min": [
        -0.9999956488609314,
        -0.9999420046806335,
        -1.0
      ],
      "type": "VEC3"
    },
    {
      "bufferView": 0,
      "byteOffset": 299280,
      "componentType": 5125,
      "count": 9216,
      "type": "SCALAR"
    },
    {
      "bufferView": 2,
      "byteOffset": 340488,
      "componentType": 5126,
      "count": 7410,
      "max": [
        1.2344399690628052,
        1.2344399690628052,
        0.10170000046491623
      ],
      "min": [
        -1.2344399690628052,
        -1.2344399690628052,
        -2.5160300731658936
      ],
      "type": "VEC3"
    },
    {
      "bufferView": 2,
      "byteOffset": 429408,
      "componentType": 5126,
      "count": 7410,
      "max": [
        0.998191773891449,
        0.9986699223518372,
        0.9999753832817078
      ],
      "min": [
        -0.9988877773284912,
        -0.9990054965019226,
        -1.0
      ],
      "type": "VEC3"
    },
    {
      "bufferView": 1,
      "byteOffset": 10688,
      "componentType": 5126,
      "count": 7410,
      "max": [
        1.1513500213623047,
        0.9441699981689453
      ],
      "min": [
        -0.12152999639511108,
        0.0364999994635582
      ],
      "type": "VEC2"
    },
    {
      "bufferView": 0,
      "byteOffset": 336144,
      "componentType": 5125,
      "count": 43008,
      "type": "SCALAR"
    },
    {
      "bufferView": 2,
      "byteOffset": 518328,
      "componentType": 5126,
      "count": 1856,
      "max": [
        0.32447001338005066,
        0.34196001291275024,
        0.21830999851226807
      ],
      "min": [
        -0.36340001225471497,
        -0.34196001291275024,
        -0.16204999387264252
      ],
      "type": "VEC3"
    },
    {
      "bufferView": 2,
      "byteOffset": 540600,
      "componentType": 5126,
      "count": 1856,
      "max": [
        0.9997531175613403,
        0.9998707175254822,
        0.999417781829834
      ],
      "min": [
        -0.9998182058334351,
        -0.9998707175254822,
        -0.9525972604751587
      ],
      "type": "VEC3"
    },
    {
      "bufferView": 1,
      "byteOffset": 69968,
      "componentType": 5126,
      "count": 1856,
      "max": [
        0.7651299834251404,
        0.9964200258255005
      ],
      "min": [
        0.0018899999558925629,
        0.0036299999337643385
      ],
      "type": "VEC2"
    },
    {
      "bufferView": 0,
      "byteOffset": 508176,
      "componentType": 5125,
      "count": 10752,
      "type": "SCALAR"
    },
    {
      "bufferView": 2,
      "byteOffset": 562872,
      "componentType": 5126,
      "count": 1934,
      "max": [
        0.9441999793052673,
        0.9519400000572205,
        0.49889999628067017
      ],
      "min": [
        -0.9504299759864807,
        -0.9514600038528442,
        -0.49889999628067017
      ],
      "type": "VEC3"
    },
    {
      "bufferView": 2,
      "byteOffset": 586080,
      "componentType": 5126,
      "count": 1934,
      "max": [
        0.997814953327179,
        0.9999857544898987,
        0.9999151229858398
      ],
      "min": [
        -0.9957940578460693,
        -0.9999999403953552,
        -0.9999151229858398
      ],
      "type": "VEC3"
    },
    {
      "bufferView": 1,
      "byteOffset": 84816,
      "componentType": 5126,
      "count": 1934,
      "max": [
        0.9993299841880798,
        0.9965500235557556
      ],
      "min": [
        0.0015699999639764428,
        0.003449999960139394
      ],
      "type": "VEC2"
    },
    {
      "bufferView": 0,
      "byteOffset": 551184,
      "componentType": 5125,
      "count": 11520,
      "type": "SCALAR"
    },
    {
      "bufferView": 2,
      "byteOffset": 609288,
      "componentType": 5126,
      "count": 4,
      "max": [
        1.0,
        1.0,
        0.0
      ],
      "min": [
        -1.0,
        -1.0,
        0.0
      ],
      "type": "VEC3"
    },
    {
      "bufferView": 2,
      "byteOffset": 609336,
      "componentType": 5126,
      "count": 4,
      "max": [
        0.0,
        0.0,
        1.0
      ],
      "min": [
        0.0,
        0.0,
        1.0
      ],
      "type": "VEC3"
    },
    {
      "bufferView": 0,
      "byteOffset": 597264,
      "componentType": 5125,
      "count": 6,
      "type": "SCALAR"
    }
  ],
  "asset": {
    "extras": {
      "author": "DineshThennarasan (https://sketchfab.com/dineshthennarasan)",
      "license": "CC-BY-4.0 (http://creativecommons.org/licenses/by/4.0/)",
      "source": "https://sketchfab.com/3d-models/fashionable-earrings-75c142dad9604c348fc6da74c6f50a8b",
      "title": "Fashionable Earrings"
    },
    "generator": "Sketchfab-12.67.0",
    "version": "2.0"
  },
  "bufferViews": [
    {
      "buffer": 0,
      "byteLength": 597288,
      "name": "floatBufferViews",
      "target": 34963
    },
    {
      "buffer": 0,
      "byteLength": 100288,
      "byteOffset": 597288,
      "byteStride": 8,
      "name": "floatBufferViews",
      "target": 34962
    },
    {
      "buffer": 0,
      "byteLength": 609384,
      "byteOffset": 697576,
      "byteStride": 12,
      "name": "floatBufferViews",
      "target": 34962
    }
  ],
  "buffers": [
    {
      "byteLength": 1306960,
      "uri": "scene.bin"
    }
  ],
  "extensionsRequired": [
    "KHR_materials_pbrSpecularGlossiness"
  ],
  "extensionsUsed": [
    "KHR_materials_pbrSpecularGlossiness"
  ],
  "images": [
    {
      "uri": "textures/bead_diffuse.jpeg"
    },
    {
      "uri": "textures/main_diffuse.jpeg"
    }
  ],
  "materials": [
    {
      "doubleSided": true,
      "emissiveFactor": [
        1.0,
        1.0,
        1.0
      ],
      "extensions": {
        "KHR_materials_pbrSpecularGlossiness": {
          "diffuseFactor": [
            1.0,
            1.0,
            1.0,
            1.0
          ],
          "glossinessFactor": 0.4,
          "specularFactor": [
            1.0,
            1.0,
            1.0
          ]
        }
      },
      "name": "light"
    },
    {
      "doubleSided": true,
      "extensions": {
        "KHR_materials_pbrSpecularGlossiness": {
          "diffuseFactor": [
            1.0,
            1.0,
            1.0,
            1.0
          ],
          "diffuseTexture": {
            "index": 0
          },
          "glossinessFactor": 0.7999999970197678,
          "specularFactor": [
            0.0,
            0.0,
            0.0
          ]
        }
      },
      "name": "bead"
    },
    {
      "doubleSided": true,
      "extensions": {
        "KHR_materials_pbrSpecularGlossiness": {
          "diffuseFactor": [
            1.0,
            1.0,
            1.0,
            1.0
          ],
          "diffuseTexture": {
            "index": 1
          },
          "glossinessFactor": 1.0,
          "specularFactor": [
            0.0,
            0.0,
            0.0
          ]
        }
      },
      "name": "main"
    },
    {
      "doubleSided": true,
      "extensions": {
        "KHR_materials_pbrSpecularGlossiness": {
          "diffuseFactor": [
            0.0,
            0.0,
            0.0,
            1.0
          ],
          "glossinessFactor": 1.0,
          "specularFactor": [
            0.800000011920929,
            0.800000011920929,
            0.800000011920929
          ]
        }
      },
      "name": "silver"
    },
    {
      "doubleSided": true,
      "extensions": {
        "KHR_materials_pbrSpecularGlossiness": {
          "diffuseFactor": [
            1.0,
            1.0,
            1.0,
            1.0
          ],
          "diffuseTexture": {
            "index": 0
          },
          "glossinessFactor": 0.0,
          "specularFactor": [
            0.0,
            0.0,
            0.0
          ]
        }
      },
      "name": "textured_1"
    }
  ],
  "meshes": [
    {
      "name": "Circle.001_0",
      "primitives": [
        {
          "attributes": {
            "NORMAL": 1,
            "POSITION": 0,
            "TEXCOORD_0": 2
          },
          "indices": 3,
          "material": 2,
          "mode": 4
        }
      ]
    },
    {
      "name": "BezierCurve.004_0",
      "primitives": [
        {
          "attributes": {
            "NORMAL": 5,
            "POSITION": 4
          },
          "indices": 6,
          "material": 3,
          "mode": 4
        }
      ]
    },
    {
      "name": "Sphere.001_0",
      "primitives": [
        {
          "attributes": {
            "NORMAL": 8,
            "POSITION": 7
          },
          "indices": 9,
          "material": 3,
          "mode": 4
        }
      ]
    },
    {
      "name": "BezierCurve.001_0",
      "primitives": [
        {
          "attributes": {
            "NORMAL": 11,
            "POSITION": 10
          },
          "indices": 12,
          "material": 3,
          "mode": 4
        }
      ]
    },
    {
      "name": "Bolt_0",
      "primitives": [
        {
          "attributes": {
            "NORMAL": 14,
            "POSITION": 13
          },
          "indices": 15,
          "material": 3,
          "mode": 4
        }
      ]
    },
    {
      "name": "BezierCircle_0",
      "primitives": [
        {
          "attributes": {
            "NORMAL": 17,
            "POSITION": 16
          },
          "indices": 18,
          "material": 3,
          "mode": 4
        }
      ]
    },
    {
      "name": "BezierCurve_0",
      "primitives": [
        {
          "attributes": {
            "NORMAL": 20,
            "POSITION": 19
          },
          "indices": 21,
          "material": 3,
          "mode": 4
        }
      ]
    },
    {
      "name": "Circle_0",
      "primitives": [
        {
          "attributes": {
            "NORMAL": 23,
            "POSITION": 22,
            "TEXCOORD_0": 24
          },
          "indices": 25,
          "material": 4,
          "mode": 4
        }
      ]
    },
    {
      "name": "Circle.002_0",
      "primitives": [
        {
          "attributes": {
            "NORMAL": 27,
            "POSITION": 26,
            "TEXCOORD_0": 28
          },
          "indices": 29,
          "material": 2,
          "mode": 4
        }
      ]
    },
    {
      "name": "Sphere_0",
      "primitives": [
        {
          "attributes": {
            "NORMAL": 31,
            "POSITION": 30,
            "TEXCOORD_0": 32
          },
          "indices": 33,
          "material": 1,
          "mode": 4
        }
      ]
    },
    {
      "name": "Plane_0",
      "primitives": [
        {
          "attributes": {
            "NORMAL": 35,
            "POSITION": 34
          },
          "indices": 36,
          "material": 0,
          "mode": 4
        }
      ]
    }
  ],
  "nodes": [
    {
      "children": [
        1
      ],
      "matrix": [
        1.0,
        0.0,
        0.0,
        0.0,
        0.0,
        2.220446049250313e-16,
        -1.0,
        0.0,
        0.0,
        1.0,
        2.220446049250313e-16,
        0.0,
        0.0,
        0.0,
        0.0,
        1.0
      ],
      "name": "Sketchfab_model"
    },
    {
      "children": [
        2,
        20,
        22
      ],
      "name": "Root"
    },
    {
      "children": [
        3,
        4,
        12,
        14
      ],
      "matrix": [
        2.25122,
        0.0,
        -0.45578,
        0.0,
        -0.0,
        2.29689,
        -0.0,
        0.0,
        0.45578,
        0.0,
        2.25122,
        0.0,
        -0.5663,
        -0.029120000000000004,
        1.14904,
        1.0
      ],
      "name": "Circle.001"
    },
    {
      "mesh": 0,
      "name": "Circle.001_0"
    },
    {
      "children": [
        5,
        6,
        8,
        10
      ],
      "matrix": [
        -0.025530000000000004,
        -0.0,
        0.04218000000000001,
        0.0,
        0.0,
        -0.04916000000000001,
        -0.0,
        0.0,
        0.03462000000000001,
        0.0,
        0.020960000000000006,
        0.0,
        -0.014480000000000002,
        0.8862300000000001,
        -0.03464000000000001,
        1.0
      ],
      "name": "BezierCurve.004"
    },
    {
      "mesh": 1,
      "name": "BezierCurve.004_0"
    },
    {
      "children": [
        7
      ],
      "matrix": [
        -1.21891,
        0.0,
        -0.0,
        0.0,
        0.0,
        -0.0,
        -1.4850299999999999,
        0.0,
        -0.0,
        -1.22268,
        0.0,
        0.0,
        -0.18245000000000003,
        -5.1911499999999995,
        0.04189000000000001,
        1.0
      ],
      "name": "Sphere.001"
    },
    {
      "mesh": 2,
      "name": "Sphere.001_0"
    },
    {
      "children": [
        9
      ],
      "matrix": [
        -2.53711,
        -1.9073899999999997,
        2.10827,
        0.0,
        1.67396,
        -3.2827,
        -1.39102,
        0.0,
        1.9476799999999999,
        -0.0,
        3.4790099999999997,
        0.0,
        1.06241,
        -15.45462,
        -1.48315,
        1.0
      ],
      "name": "BezierCurve.001"
    },
    {
      "mesh": 3,
      "name": "BezierCurve.001_0"
    },
    {
      "children": [
        11
      ],
      "matrix": [
        -3.48088,
        0.0,
        -0.0,
        0.0,
        0.0,
        -0.0,
        -4.24084,
        0.0,
        -0.0,
        -8.31629,
        0.0,
        0.0,
        -0.15265,
        -5.480320000000001,
        0.08189000000000002,
        1.0
      ],
      "name": "Bolt"
    },
    {
      "mesh": 4,
      "name": "Bolt_0"
    },
    {
      "children": [
        13
      ],
      "matrix": [
        0.034610000000000016,
        -0.006550000000000002,
        -0.04324000000000001,
        0.0,
        0.009350000000000002,
        0.049400000000000006,
        0.0,
        0.0,
        0.04162000000000001,
        -0.007870000000000002,
        0.03450000000000001,
        0.0,
        -0.0010100000000000003,
        -0.09296000000000003,
        -0.02798000000000001,
        1.0
      ],
      "name": "BezierCircle"
    },
    {
      "mesh": 5,
      "name": "BezierCircle_0"
    },
    {
      "children": [
        15,
        16
      ],
      "matrix": [
        -0.028510000000000004,
        -0.0003300000000000001,
        -0.019000000000000003,
        0.0,
        -0.0003500000000000001,
        0.034150000000000014,
        -7.000000000000003e-05,
        0.0,
        0.015600000000000003,
        0.00011000000000000003,
        -0.023400000000000008,
        0.0,
        -0.009510000000000003,
        -0.18831000000000003,
        -0.010310000000000001,
        1.0
      ],
      "name": "BezierCurve"
    },
    {
      "mesh": 6,
      "name": "BezierCurve_0"
    },
    {
      "children": [
        17,
        18
      ],
      "matrix": [
        -3.6509,
        0.3364700000000001,
        2.96871,
        0.0,
        2.4392099999999997,
        -0.06812000000000003,
        4.46392,
        0.0,
        0.48821000000000003,
        6.78503,
        -0.24323000000000003,
        0.0,
        -0.24828000000000003,
        -3.6442,
        -0.09013000000000003,
        1.0
      ],
      "name": "Circle"
    },
    {
      "mesh": 7,
      "name": "Circle_0"
    },
    {
      "children": [
        19
      ],
      "matrix": [
        1.35093,
        -0.27351000000000003,
        -0.06974000000000002,
        0.0,
        0.27434000000000003,
        1.35503,
        -0.0,
        0.0,
        0.16235000000000002,
        -0.03287000000000001,
        1.37833,
        0.0,
        -0.12729000000000001,
        -0.15679000000000004,
        -2.55774,
        1.0
      ],
      "name": "Circle.002"
    },
    {
      "mesh": 8,
      "name": "Circle.002_0"
    },
    {
      "children": [
        21
      ],
      "matrix": [
        0.12794000000000003,
        0.0,
        -0.025900000000000006,
        0.0,
        -0.021840000000000002,
        0.07015,
        -0.10790000000000001,
        0.0,
        0.016080000000000004,
        0.12721000000000002,
        0.07945,
        0.0,
        -0.6645800000000001,
        1.9893999999999998,
        1.22058,
        1.0
      ],
      "name": "Sphere"
    },
    {
      "mesh": 9,
      "name": "Sphere_0"
    },
    {
      "children": [
        23
      ],
      "matrix": [
        -0.6267200000000002,
        0.0,
        -0.8686700000000002,
        0.0,
        0.22070000000000004,
        1.52241,
        -0.15923000000000004,
        0.0,
        0.54517,
        -0.12017000000000001,
        -0.3933200000000001,
        0.0,
        -5.244409999999999,
        0.9835599999999999,
        4.10736,
        1.0
      ],
      "name": "Plane"
    },
    {
      "mesh": 10,
      "name": "Plane_0"
    }
  ],
  "samplers": [
    {
      "magFilter": 9729,
      "minFilter": 9987,
      "wrapS": 10497,
      "wrapT": 10497
    }
  ],
  "scene": 0,
  "scenes": [
    {
      "name": "Sketchfab_Scene",
      "nodes": [
        0
      ]
    }
  ],
  "textures": [
    {
      "sampler": 0,
      "source": 0
    },
    {
      "sampler": 0,
      "source": 1
    }
  ]
}
